<?xml version="1.0" encoding="utf-8"?>
<!-- Generator: Adobe Illustrator 25.2.3, SVG Export Plug-In . SVG Version: 6.00 Build 0)  -->
<svg version="1.1" id="レイヤー_1" xmlns="http://www.w3.org/2000/svg" xmlns:xlink="http://www.w3.org/1999/xlink" x="0px"
	 y="0px" width="60px" height="60px" viewBox="0 0 60 60" style="enable-background:new 0 0 60 60;" xml:space="preserve">
<style type="text/css">
	.st0{fill:#ED8F20;}
	.st1{fill:#EF771D;}
	.st2{fill:#9B6026;}
	.st3{fill:#659C35;}
	.st4{fill:#88C057;}
</style>
<g>
	<path class="st0" d="M43.6,15l-5.9-0.5L39.9,9c0.4-0.9,0.8-1.7,1.3-2.5C37.7,5,33.9,4.1,29.9,4.1C14.5,4.1,2,16.6,2,32.1
		S14.5,60,29.9,60s27.9-12.5,27.9-27.9c0-7.1-2.6-13.5-6.9-18.4C48.7,14.7,46.2,15.2,43.6,15z"/>
	<circle class="st1" cx="46" cy="21.5" r="2.3"/>
	<circle class="st1" cx="52.2" cy="34.5" r="2.3"/>
	<circle class="st1" cx="51.8" cy="27.4" r="2.3"/>
	<circle class="st1" cx="44.8" cy="32.1" r="2.3"/>
	<circle class="st1" cx="46" cy="40.2" r="2.3"/>
	<circle class="st1" cx="25" cy="12.2" r="2.3"/>
	<circle class="st1" cx="16.9" cy="15.7" r="2.3"/>
	<g>
		<path class="st0" d="M33.4,13.4c0,0,4.9,0.8,6.3,4.2"/>
		<path class="st2" d="M39.7,18.8c-0.5,0-0.9-0.3-1.1-0.7c-1.1-2.7-5.4-3.5-5.4-3.5c-0.6-0.1-1.1-0.7-1-1.3c0.1-0.6,0.7-1.1,1.3-1
			c0.2,0,5.6,1,7.2,4.9c0.2,0.6-0.1,1.3-0.7,1.5C40,18.8,39.9,18.8,39.7,18.8z"/>
	</g>
	<g>
		<path class="st0" d="M34.1,16.9c1.2-1.3,2.7-2.4,4.4-3"/>
		<path class="st2" d="M34.1,18.1c-0.3,0-0.6-0.1-0.8-0.3c-0.5-0.4-0.5-1.2-0.1-1.6c1.3-1.5,3-2.6,4.9-3.3c0.6-0.2,1.3,0.1,1.5,0.7
			c0.2,0.6-0.1,1.3-0.7,1.5c-1.5,0.6-2.9,1.5-4,2.7C34.8,18,34.4,18.1,34.1,18.1z"/>
	</g>
	<path class="st3" d="M60.2,0.5L54.3,0C48-0.5,42.2,3.1,39.9,9l-2.2,5.5l5.9,0.5c6.3,0.5,12.1-3.1,14.4-9L60.2,0.5z"/>
	<path class="st4" d="M38.3,12.9l-0.7,1.6l0.8,0.1c7.3-7.1,15.2-9.5,16.1-9.5V4.4l0.6,0.5l0.2-0.7l-0.5-0.5
		C54.1,3.6,45.9,5.8,38.3,12.9z"/>
</g>
</svg>
